Coordinates
version=1
nRows=15
nColumns=34
inDegrees=no

Units are S.I. units (second, meters, Newtons, ...)
If the header above contains a line with 'inDegrees', this indicates whether rotational values are in degrees (yes) or radians (no).

endheader
time	pelvis_tilt	pelvis_list	pelvis_rotation	pelvis_tx	pelvis_ty	pelvis_tz	hip_flexion_r	hip_adduction_r	hip_rotation_r	knee_angle_r	ankle_angle_r	subtalar_angle_r	mtp_angle_r	hip_flexion_l	hip_adduction_l	hip_rotation_l	knee_angle_l	ankle_angle_l	subtalar_angle_l	mtp_angle_l	lumbar_extension	lumbar_bending	lumbar_rotation	arm_flex_r	arm_add_r	arm_rot_r	elbow_flex_r	pro_sup_r	arm_flex_l	arm_add_l	arm_rot_l	elbow_flex_l	pro_sup_l
1.55	-0.148924	-0.0762977	-0.0418887	-0.446238	1.17914	-0.574747	0.523453	-0.0750163	-0.118465	0.304837	-0.350562	0.0182562	-0.019656	0.531986	-0.290306	-0.348487	0.223716	-0.691104	-0.121184	-0.019656	-0.372338	0.0168322	-0.0944884	-1.04617	-0.395824	-0.600437	2.08505	2.09022	-0.598686	-0.692222	-0.396927	2.27782	2.07806
1.56	-0.153296	-0.0788391	-0.0440451	-0.437228	1.15001	-0.574506	0.564788	-0.0708114	-0.10169	0.389543	-0.247201	-0.0273849	-0.019656	0.587302	-0.299954	-0.288201	0.351323	-0.507904	-0.171151	-0.019656	-0.37025	0.018987	-0.0939432	-1.00321	-0.36106	-0.589402	2.07779	2.09012	-0.575381	-0.683911	-0.378601	2.27268	2.08336
1.57	-0.158894	-0.0812379	-0.045286	-0.429683	1.1202	-0.574204	0.615109	-0.0678006	-0.0854181	0.4844	-0.156501	-0.0712193	-0.019656	0.648327	-0.307992	-0.231907	0.477676	-0.349796	-0.214866	-0.019656	-0.370214	0.0213133	-0.0921362	-0.951343	-0.329014	-0.575738	2.06701	2.09	-0.540694	-0.676512	-0.354259	2.26344	2.08719
1.58	-0.165646	-0.0834786	-0.0455772	-0.423892	1.09035	-0.57394	0.674052	-0.0660471	-0.069814	0.58878	-0.0790449	-0.113134	-0.019656	0.71477	-0.314389	-0.179727	0.602378	-0.217097	-0.252312	-0.019656	-0.372296	0.0237961	-0.0890953	-0.89066	-0.299805	-0.559449	2.05277	2.08987	-0.494695	-0.669944	-0.323916	2.25011	2.08956
1.59	-0.173325	-0.0855523	-0.0448413	-0.419343	1.06125	-0.573931	0.740439	-0.0656886	-0.055325	0.700829	-0.0158519	-0.152831	-0.019656	0.785731	-0.319112	-0.131906	0.724419	-0.109861	-0.283374	-0.019656	-0.376682	0.0264287	-0.0848386	-0.821484	-0.273795	-0.540598	2.0353	2.08973	-0.437595	-0.663943	-0.287585	2.23277	2.09054
1.6	-0.181522	-0.0874992	-0.0429885	-0.415235	1.03462	-0.574071	0.812017	-0.0668873	-0.0426459	0.817309	0.0326218	-0.189807	-0.019656	0.859506	-0.322185	-0.0887061	0.842198	-0.0267516	-0.307735	-0.019656	-0.383656	0.0292528	-0.0792678	-0.744555	-0.251622	-0.51941	2.01514	2.0896	-0.36978	-0.657992	-0.245213	2.21155	2.09023
1.61	-0.189727	-0.0894168	-0.0399606	-0.411333	1.0106	-0.574323	0.885612	-0.0697707	-0.0325351	0.933966	0.0675433	-0.223387	-0.019656	0.933683	-0.323716	-0.050286	0.953717	0.0355998	-0.324899	-0.019656	-0.393492	0.032365	-0.0720631	-0.661115	-0.234129	-0.496381	1.99324	2.0895	-0.291781	-0.65132	-0.196618	2.18664	2.08882
1.62	-0.1975	-0.0914128	-0.0357633	-0.408044	0.987742	-0.574712	0.957713	-0.0743984	-0.0255571	1.04628	0.0920052	-0.252814	-0.019656	1.0056	-0.32389	-0.0166347	1.05693	0.0822743	-0.334432	-0.019656	-0.406279	0.0358618	-0.06266	-0.572845	-0.2222	-0.472321	1.97093	2.08948	-0.204209	-0.64299	-0.141483	2.15827	2.08656
1.63	-0.204659	-0.093522	-0.0304891	-0.405542	0.96543	-0.575233	1.02522	-0.0807474	-0.0218514	1.15029	0.110449	-0.277369	-0.019656	1.07297	-0.322936	0.0124142	1.15019	0.11899	-0.33625	-0.019656	-0.421764	0.0397387	-0.0503587	-0.481628	-0.216613	-0.448238	1.94984	2.08958	-0.107754	-0.632018	-0.0794956	2.12675	2.08377
1.64	-0.211331	-0.0956289	-0.0243387	-0.403652	0.943594	-0.575855	1.08601	-0.0886982	-0.0210015	1.24317	0.127622	-0.296469	-0.019656	1.13438	-0.321114	0.0370946	1.23265	0.150841	-0.330799	-0.019656	-0.439319	0.0437787	-0.0345922	-0.389167	-0.217965	-0.425019	1.93156	2.08984	-0.00335688	-0.617523	-0.0107031	2.09248	2.08088
1.65	-0.217883	-0.097429	-0.0176238	-0.402193	0.922212	-0.576506	1.13926	-0.0980211	-0.0220389	1.32359	0.147497	-0.309769	-0.019656	1.18947	-0.318716	0.0575998	1.3044	0.18133	-0.319094	-0.019656	-0.458046	0.0474898	-0.0153259	-0.296502	-0.22669	-0.402932	1.91733	2.09027	0.107455	-0.598863	0.0639641	2.05616	2.07835
1.66	-0.224747	-0.0984939	-0.0107382	-0.401104	0.901294	-0.577116	1.18527	-0.108361	-0.023623	1.39171	0.172442	-0.317262	-0.019656	1.23874	-0.31607	0.0740607	1.36642	0.212004	-0.302637	-0.019656	-0.47702	0.0502052	0.00682889	-0.203783	-0.243	-0.381425	1.90779	2.09088	0.222587	-0.575806	0.142604	2.01878	2.07661
1.67	-0.232257	-0.0983766	-0.00410174	-0.400354	0.880955	-0.577616	1.22529	-0.119258	-0.0243092	1.44885	0.202826	-0.31936	-0.019656	1.28324	-0.313513	0.0865866	1.42027	0.242735	-0.283218	-0.019656	-0.495515	0.0512581	0.0307069	-0.110257	-0.266783	-0.359179	1.90291	2.09157	0.339637	-0.548646	0.222591	1.98165	2.07587
1.68	-0.240543	-0.0967089	0.00189858	-0.399808	0.861523	-0.577943	1.26107	-0.130197	-0.0228203	1.49716	0.237138	-0.3169	-0.019656	1.32409	-0.311354	0.0953263	1.46768	0.272447	-0.262641	-0.019656	-0.513144	0.0501481	0.0548065	-0.0144489	-0.297489	-0.334332	1.90202	2.09221	0.456241	-0.518233	0.301008	1.94622	2.07595
1.69	-0.249522	-0.0932786	0.00694631	-0.399279	0.843308	-0.578039	1.29444	-0.140657	-0.0182658	1.5391	0.272564	-0.311077	-0.019656	1.36219	-0.309846	0.10053	1.51022	0.299929	-0.24244	-0.019656	-0.529861	0.0466587	0.0775653	0.0855355	-0.334047	-0.304797	1.90393	2.09256	0.570379	-0.485875	0.375067	1.91393	2.07644
